{
	"asset":{
		"generator":"Khronos glTF Blender I/O v4.0.44",
		"version":"2.0"
	},
	"extensionsUsed":[
		"KHR_materials_specular",
		"KHR_materials_ior"
	],
	"scene":0,
	"scenes":[
		{
			"name":"Scene",
			"nodes":[
				0
			]
		}
	],
	"nodes":[
		{
			"mesh":0,
			"name":"mini_OBJ",
			"rotation":[
				-0.06305930018424988,
				0,
				0,
				0.9980098009109497
			],
			"translation":[
				0,
				38.37675857543945,
				0
			]
		}
	],
	"materials":[
		{
			"doubleSided":true,
			"extensions":{
				"KHR_materials_specular":{
					"specularFactor":0
				},
				"KHR_materials_ior":{
					"ior":1.4500000476837158
				}
			},
			"name":"mini_OBJ",
			"pbrMetallicRoughness":{
				"baseColorTexture":{
					"index":0
				},
				"metallicFactor":0
			}
		}
	],
	"meshes":[
		{
			"name":"mini_OBJ",
			"primitives":[
				{
					"attributes":{
						"COLOR_0":0,
						"POSITION":1,
						"NORMAL":2,
						"TEXCOORD_0":3
					},
					"indices":4,
					"material":0
				}
			]
		}
	],
	"textures":[
		{
			"sampler":0,
			"source":0
		}
	],
	"images":[
		{
			"mimeType":"image/jpeg",
			"name":"26_01_25_2215",
			"uri":"26_01_25_2215.jpg"
		}
	],
	"accessors":[
		{
			"bufferView":0,
			"componentType":5126,
			"count":1480521,
			"type":"VEC4"
		},
		{
			"bufferView":1,
			"componentType":5126,
			"count":1480521,
			"max":[
				256.8905029296875,
				63.51713180541992,
				267.666015625
			],
			"min":[
				-228.3907470703125,
				-46.281986236572266,
				-261.333984375
			],
			"type":"VEC3"
		},
		{
			"bufferView":2,
			"componentType":5126,
			"count":1480521,
			"type":"VEC3"
		},
		{
			"bufferView":3,
			"componentType":5126,
			"count":1480521,
			"type":"VEC2"
		},
		{
			"bufferView":4,
			"componentType":5125,
			"count":1499982,
			"type":"SCALAR"
		}
	],
	"bufferViews":[
		{
			"buffer":0,
			"byteLength":23688336,
			"byteOffset":0,
			"target":34962
		},
		{
			"buffer":0,
			"byteLength":17766252,
			"byteOffset":23688336,
			"target":34962
		},
		{
			"buffer":0,
			"byteLength":17766252,
			"byteOffset":41454588,
			"target":34962
		},
		{
			"buffer":0,
			"byteLength":11844168,
			"byteOffset":59220840,
			"target":34962
		},
		{
			"buffer":0,
			"byteLength":5999928,
			"byteOffset":71065008,
			"target":34963
		}
	],
	"samplers":[
		{
			"magFilter":9729,
			"minFilter":9987
		}
	],
	"buffers":[
		{
			"byteLength":77064936,
			"uri":"Lato_lights.bin"
		}
	]
}
